<?xml version="1.0" encoding="UTF-8"?><svg fill="#0C0E1D" id="Layer_2" xmlns="http://www.w3.org/2000/svg" viewBox="0 0 1830.3 1070.4"><path d="M491.5,908.1l-28.8,87.2h19.2l6.2-20.8h29.1l6.2,20.8h20l-28.4-87.2h-23.5ZM492.6,958.4l9.6-33.1h.6l9.8,33.1h-20ZM873.4,966.8l15.5,9c-3.2,6.7-7.5,11.8-12.8,15.4-5.3,3.6-12,5.4-20.1,5.4v.2c-5.9,0-11.2-.9-16-2.8s-8.8-4.7-12.1-8.4-5.9-8.3-7.8-13.9c-1.8-5.5-2.8-12-2.8-19.4s.9-13.9,2.8-19.6c1.8-5.7,4.4-10.5,7.8-14.4,3.3-3.9,7.4-6.8,12.1-8.8s10.1-3,16-3,14.8,1.6,20,4.9c5.2,3.3,9.5,8.5,12.6,15.6l-16.4,8.5c-1.2-3.7-3-6.6-5.4-8.8-2.5-2.2-6.1-3.3-10.8-3.3s-10.1,1.8-13.4,5.4-5.1,8.9-5.1,15.8v14c0,6.9,1.7,12.2,5.1,15.8s7.9,5.4,13.4,5.4,8.4-1.3,11.2-3.8,4.9-5.6,6.2-9.2ZM950.3,937.4c-2.6-2.9-5.8-5.2-9.6-6.8-3.8-1.6-8.1-2.4-12.9-2.4s-9.1.8-12.9,2.4-7,3.8-9.6,6.8c-2.7,2.9-4.7,6.6-6.1,10.8-1.4,4.2-2.1,9-2.1,14.2s.7,10,2.1,14.2c1.5,4.3,3.5,7.9,6.1,10.9s5.8,5.3,9.6,6.9c3.8,1.6,8.1,2.4,12.9,2.4s9.1-.8,12.9-2.4c3.8-1.6,6.9-3.9,9.6-6.9s4.7-6.7,6.1-10.9c1.4-4.2,2.1-9,2.1-14.2s-.7-10-2.1-14.2c-1.5-4.2-3.5-7.8-6.1-10.8ZM939.3,969.2c0,4.1-1,7.3-3,9.6s-4.8,3.4-8.5,3.4-6.5-1.2-8.5-3.4-3-5.4-3-9.6v-13.4c0-4.1,1-7.3,3-9.6s4.8-3.4,8.5-3.4,6.5,1.2,8.5,3.4,3,5.4,3,9.6v13.4ZM1061.9,935c3.4,4.6,5.1,10.9,5.1,19.2v41.1h-18.5v-39.6c0-8.3-3-12.5-9-12.5s-5.2.8-7.5,2.4c-2.2,1.6-3.4,4-3.4,7.2v42.5h-18.5v-39.6c0-8.3-3-12.5-9-12.5s-2.6.2-3.9.6c-1.3.4-2.5,1-3.5,1.8s-1.9,1.9-2.5,3.1c-.6,1.2-.9,2.6-.9,4.2v42.5h-18.5l-.2-.1v-65.6h18.5v11.1h.8c1.2-3.5,3.2-6.5,6-8.9,2.8-2.5,6.7-3.7,11.6-3.7s8.3,1.1,11.5,3.4c3.2,2.2,5.5,5.5,6.9,9.9h.4c.6-1.8,1.5-3.6,2.7-5.2,1.2-1.6,2.7-3,4.4-4.2,1.8-1.2,3.7-2.1,5.9-2.8,2.2-.7,4.5-1.1,7-1.1,6.3,0,11.2,2.2,14.6,6.8ZM1120.1,928.2c-4.2,0-8,1.2-11.3,3.5s-5.4,5.3-6.3,9h-.6v-11h-18.5v.2s0,90.6,0,90.6h18.5v-36h.6c.5,1.7,1.3,3.4,2.4,4.9,1,1.5,2.4,2.9,3.9,4,1.6,1.1,3.3,2,5.2,2.6,1.9.6-2.3.9,6.1.9s14.6-2.9,18.9-8.8,6.4-14.4,6.4-25.6-2.2-19.7-6.4-25.5c-4.3-5.9-10.6-8.8-18.9-8.8ZM1126.1,968.2c0,4.1-1.1,7.4-3.4,9.9-2.3,2.5-5.2,3.7-8.7,3.7v.2c-3.5,0-6.4-.9-8.7-2.6-2.3-1.7-3.4-4.1-3.4-7.1v-19.4c0-3,1.1-5.4,3.4-7.1,2.3-1.7,5.2-2.6,8.7-2.6s6.4,1.2,8.7,3.7c2.3,2.4,3.4,5.7,3.4,9.9v11.4ZM1212.1,952.4c0-7.9-2.3-13.8-7-17.9s-14.1-6.1-21-6.1-12.4,1.1-16.4,3.3c-4.1,2.2-7.4,5.3-10.1,9.2l11,9.8c1.4-2,3.2-3.8,5.4-5.4,2.2-1.6,4.9-2.4,8.8-2.4s6.7.9,8.4,2.8c1.7,1.9,2.5,4.4,2.5,7.6v4.1h-10.4c-8.7,0-15.6,1.6-20.6,5-5.1,3.4-7.6,9.7-7.6,15.4s1.7,10.3,5.2,13.8,10.1,5.2,15.1,5.2,9.2-1.1,12.6-3.3,5.6-5.5,6.6-9.7h.8c.6,3.5,2,6.3,4.2,8.4,2.2,2.1,5,3.1,8.3,3.1l.1.3h10.2v-14.4h-6.1v-28.8ZM1193.5,975.4c0,3-1.1,5.2-3.3,6.5-2.2,1.3-4.8,2-7.9,2h-.1c-2.8,0-5-.6-6.4-1.7s-2.2-2.9-2.2-5.3v-1.9c0-4.9,3.7-7.3,10.9-7.3h9v7.7ZM1283.3,934.9c3.5,4.5,5.2,10.9,5.2,19.2v41.1h-18.5v-39.6c0-4.2-.7-7.4-2-9.4s-3.7-3.1-7.1-3.1-3,.2-4.4.6c-1.4.4-2.7,1-3.8,1.8-1.1.8-2,1.9-2.7,3.1-.7,1.2-1,2.6-1,4.2v42.5h-18.5v-65.6h18.5v11.1h.8c1.2-3.4,3.2-6.4,6.1-8.9s7-3.8,12.1-3.8,11.9,2.2,15.3,6.8ZM1344.1,929.7h17.2l-25.2,75.8c-1.7,5.1-4,8.8-7.1,11.2-3,2.4-7.4,3.6-13.1,3.6h-11.5v-14.4h12.4l2.2-7.2-23-69h18.4l9.6,30.6,4.8,19h.8l4.9-19,9.6-30.6ZM761,906.5h0s-31.2,0-31.2,0c-2.3,0-4.1,1.8-4.1,4.1v80.6c0,2.3,1.8,4.1,4.1,4.1h16.9c2.3,0,4.1-1.8,4.1-4.1v-19.9h10.2c23.7-.2,35.6-14.3,35.6-32.5s-11.8-32.3-35.6-32.3ZM761.7,950.4c-6.9,0-12.5-5.6-12.5-12.5s5.6-12.5,12.5-12.5,12.5,5.6,12.5,12.5-5.6,12.5-12.5,12.5ZM634.9,910.6v12.5c0,2.3-1.8,4.1-4.1,4.1h-21.9v64c0,2.3-1.8,4.1-4.1,4.1h-16.8c-2.3,0-4.1-1.8-4.1-4.1v-64h-21.8c-2.3,0-4.1-1.8-4.1-4.1v-12.5c0-2.3,1.8-4.1,4.1-4.1h68.7c2.3,0,4.1,1.8,4.1,4.1ZM718,910.6v12.5c0,2.3-1.8,4.1-4.1,4.1h-21.9v64c0,2.3-1.8,4.1-4.1,4.1h-16.8c-2.3,0-4.1-1.8-4.1-4.1v-64h-21.8c-2.3,0-4.1-1.8-4.1-4.1v-12.5c0-2.3,1.8-4.1,4.1-4.1h68.7c2.3,0,4.1,1.8,4.1,4.1ZM0,0v866h1830.3V0H0ZM1801.1,836.9H29.2V29.2h1771.9v807.7ZM573.4,127.5h-29.5v-26.6h87.6v26.6h-29.6v157.9h-28.5V127.5ZM674,285.4h-28.2V100.9h28.2v75.3h28.5v-75.3h28.5v184.5h-28.5v-82.5h-28.5v82.5ZM828.1,285.4h-74.3V100.9h74.3v26.7h-45.8v48.3h33v26.7h-33v55.1h45.8v27.7ZM483.1,579h-40.8v186.2h42.1c15.7,0,27.2-4.1,34.4-12.4,7.2-8.2,10.8-21.4,10.8-39.5v-83.2c0-17.4-3.8-30.3-11.4-38.6-7.6-8.3-19.3-12.5-35.1-12.5ZM500.2,718.1h0c0,6.7-1.2,11.6-3.7,14.8s-6.2,4.8-11.3,4.8h-14.5v-131.3h6.6c7.9,0,13.7,1.8,17.4,5.3,3.7,3.5,5.5,9.2,5.5,16.8v89.6ZM550.4,579h74.9v26.9h-46.2v48.8h33.3v26.9h-33.3v55.6h46.2v27.9h-74.9v-186.1ZM686,579h0s-42.1,0-42.1,0v186.2h28.7v-75.7h19.7c11.9,0,21.3-5,28.2-15.1s10.3-23.9,10.3-41.5-3.5-32.6-10.6-41.1-18.5-12.8-34.2-12.8ZM697.9,656.7h-.1c-2.5,4.1-7.2,6.1-13.8,6.1h-11.3v-56.9h10.3c7.1,0,12,1.9,14.7,5.8,2.7,3.9,4,11.1,4,21.6s-1.3,19.3-3.8,23.4ZM762.9,579h-.1l-30.6,186.2h28.2l6.2-40.3h29l5.8,40.3h29.5l-30.5-186.2h-37.5ZM770.1,698.4l10.3-77.8h1.8l9.8,77.8h-21.9ZM929.3,661.1h-.1c2.8-7.2,4.2-16.7,4.2-28.3,0-18.9-3.5-32.6-10.5-41.1s-18.5-12.8-34.2-12.8h-42.1v186.2h28.7v-78.3h13.6l17.8,78.3h29.8l-21.1-86.5c6.4-4.5,11.1-10.3,13.9-17.5ZM900.4,654c-2.6,4-7.2,6-13.8,6h-11.3v-54.1h10.3c7,0,11.9,1.9,14.6,5.6,2.7,3.7,4,10.5,4,20.3s-1.3,18.2-3.9,22.2h.1ZM943.6,579h88.3v26.9h-29.9v159.2h-28.7v-159.2h-29.7v-26.9ZM1126.2,579h38.8v186.2h-26.9v-117.6c0-3.3.2-7.8.6-13.5.4-5.6.9-11.9,1.6-18.9-.5,2.5-1,5.9-1.7,10.3-1.4,8.3-2.3,13.7-2.8,16.1l-23.4,123.6h-14.3l-22.4-123.8c-.9-4.9-1.8-10.4-2.8-16.3-.9-5.9-1.5-9.2-1.7-9.9.6,6.3,1.1,12.3,1.4,17.8s.5,10.4.5,14.6v117.6h-26.7v-186.2h38.2l18.7,103.1c.7,4.1,1.3,8.5,1.7,13.2s.6,9.6.6,14.7c0-4.3.2-8.8.7-13.3s1.1-9.3,2-14.4v.1s17.9-103.4,17.9-103.4ZM1187.9,579h74.9v26.9h-46.2v48.8h33.3v26.9h-33.3v55.6h46.2v27.9h-74.9v-186.1ZM1346.1,579h26.9v186.2h-26.9l-35-102.9c-.2-.4-.5-1.1-.7-1.9-2.4-7.1-4.2-13.1-5.4-18.3,1.1,6.5,1.8,12,2.4,16.3.5,4.4.8,7.5.8,9.5v97.3h-26.7v-186.2h25.8l36.4,111.2c.7,2.1,1.5,5,2.5,8.5s2,7.3,3,11.3c-.9-5.4-1.7-10.4-2.3-15s-.9-8-.9-10.1l.1.1v-106ZM1387.1,579h88.4v26.9h-29.9v159.2h-28.7v-159.2h-29.8v-26.9ZM103,119.2c0-10.1,8.2-18.3,18.3-18.3s18.3,8.2,18.3,18.3-8.2,18.3-18.3,18.3-18.3-8.2-18.3-18.3ZM1705,119.2c0-10.1,8.2-18.3,18.3-18.3s18.3,8.2,18.3,18.3-8.2,18.3-18.3,18.3-18.3-8.2-18.3-18.3ZM88.6,749.4c0-10.1,8.2-18.3,18.3-18.3s18.3,8.2,18.3,18.3-8.2,18.3-18.3,18.3-18.3-8.2-18.3-18.3ZM1705,746.8c0-10.1,8.2-18.3,18.3-18.3s18.3,8.2,18.3,18.3-8.2,18.3-18.3,18.3-18.3-8.2-18.3-18.3ZM1308.6,316c-4.4-4.1-6.6-9.8-6.6-17.3s2.9-13.6,8.8-18.6c6-5.2,14.4-7.7,22.5-7.7s14.7,1.9,19.6,5.8c4.8,3.8,7.1,7.2,7.1,15.9s-2.7,15.4-8.3,20.5c-5.69,5.09-13.08,7.59-22.66,7.6-9.17,0-16.05-2.11-20.44-6.2ZM532.5,498.8c8.3,10.1,19.1,15,33.1,15s32.4-9.4,44.3-28.6l3.3-5.3,2.1,5.8c3.1,8.7,7.8,15.7,13.9,20.7,6.1,5,12.5,7.4,19.7,7.4s19.6-4,30-11.9c1.2-.9,2.4-1.9,3.6-2.9l4.6-3.8,1.4,4.1.6,2.1c3.2,8.3,8.6,12.4,16.3,12.4s11.2-1.7,14-4.9c3.1-3.5,5.9-10.7,8.5-21.4,3.6-14.6,8.3-28.7,14.1-42,5.8-13.2,11.7-24.1,17.7-32.2,6.6-9,11.8-13.2,16.5-13.2s6.9.6,6.9,8.7-.2,5-.8,10.2c-2.1,10.7-1.2,24.1,6.2,32.8,4.1,4.8,10,7.7,16.2,9,8.8,1.9,18.5,1.4,27.2-.9l7.2-1-1.4,4.5c-5.4,17.8-10.2,32.5-15.2,46.3-1.9,5.3-1.5,10.1,1.3,14,3.2,4.6,9.3,7.5,15.8,7.5s15-4.6,17.7-12.3c8.3-23.1,15.9-47.3,22.6-71.7l.4-1.4,1.3-.6c7-3,14-6.2,21-9.5l4.3-2v4.8c-.4,26,4.4,59.9,28.9,74.3,10.2,6,20.3,9,30.8,9,21.7,0,41.9-12.7,61.5-25l1.9-1.2,1.7,1.4c13,11.2,30.9,16.9,53.2,16.9s34.6-4.4,50.2-13.2c15.7-8.8,28-18.6,36.5-29,1.2-1.4,2.2-3.1,3.3-5.5l3.2-7.2,2.4,7.5c10,31.9,30.7,47.4,63.2,47.4s28.6-3.9,40.2-11.7c2.3-1.5,4.6-3.2,6.8-4.9l3-1.3,1.7,2.8c6.5,10.1,16.7,15.1,31.3,15.1s24.8-5.4,38.1-16.1l3.3-2.7,1.4,4,.7,2.3c3.2,8.3,8.6,12.4,16.3,12.4s11.1-1.6,14-4.9c3.1-3.5,6-10.8,8.5-21.4,3.6-14.6,8.4-28.7,14.3-42,5.9-13.2,11.7-24,17.4-32.1,6.4-9.2,11.2-13.2,15.5-13.2s6.9.6,6.9,8.7-1.5,16.4-4.7,31.7c-3.3,16.9-4.9,28.7-4.9,35.2,0,12.5,2.9,22.2,8.6,28.6,5.6,6.3,14.1,9.5,25.3,9.5s27.3-3.9,38.5-11.6c2.8-1.9,5.5-4,8.2-6.1l2.4-2,1.8,2.5c.3.4.6.8.8,1.2.2.3.4.7.7,1,8.3,10.1,19.1,15,33.1,15s13.6-1.7,19.7-4.9c6.1-3.2,12.3-6.7,16-12.6l2.6,1-2.3,15.1-.9.7c-36.3,28-61.3,51.9-74.4,71-12.9,18.8-19.5,36.6-19.5,52.8s3.5,20.4,10.6,27.3c7.1,7,16.1,10.4,27.6,10.4,24.3,0,44.1-17.4,58.9-51.6,11.8-27.2,21.8-62.9,29.9-106l.2-1.2.9-.7c17.5-12.9,35.3-24.9,53.1-35.7,6.1-3.7,5.3-9.4,4.7-11.7l-.7.2c-1.2-4.3-5-8.6-10-8.6s-3.6.6-5.4,1.6c-9.8,6-20.2,12.7-32.5,21.1l-5.5,3,1-6.7c.9-6.7,3.2-20.4,6.8-41.1,4.8-29.6,7.9-49.4,8.9-57.1.2-1.6.3-3.7.3-6.4s-.4-6.6-2.5-8.1c-1.4-1-4.4-2.1-10.9-2.1h-3.2c-.3-.6-.7-1.3-1.2-1.9-3.5-4.3-8.9-6.8-14-8.7-2.6-1-5.1-1.4-7.5-1.6-1.2-.2-2.8-.4-4.8-.4-15.7,0-30.8,5-44.9,15-14.2,10-25.7,23.5-34.3,40-8.6,16.5-12.9,34.3-12.9,52.8,0,4.99,0,7.51.02,8.57l-.12.43s-2.9,2.8-3.7,3.5c-7.2,6.4-13.4,9.5-18.9,9.5s-13.3-2.2-13.3-17.3,2.2-20.6,6.8-41.7c5.2-24,7.8-40.7,7.8-49.8,0-13.8-6.4-20.2-20.2-20.2s-15.5,2.6-24.4,7.8c-9.1,5.3-18.4,14.3-27.9,26.7-5.3,6.9-9.8,14.4-13.8,22.1-2.3,4.4-4.4,8.8-6.4,13.3-1.1,2.4-2.1,4.8-3.1,7.2-.5,1.2-1,2.5-1.5,3.7-.4,1-.7,2.1-1.3,3-.2.2-.4.5-.6.7-.8.8-2.2,1.2-3.2.7-.9-.4-1.4-1.3-1.7-2.3-.2-1.2,0-2.4.2-3.5.1-1.3.3-2.6.4-3.9.3-2.5.6-4.9.9-7.3.6-4.2,1.2-8.4,2-12.5,1.4-7.2,3.4-15.6,5.8-25.2,4.3-16.2,5.3-22.5,5.3-25s-.5-3.7-1.4-4.3c-.8-.5-3-1.3-8.4-1.3-8.2,0-14.6,1.5-18.9,4.3s-7.4,7.4-9.3,13.6c-8.7,27.4-13.1,56.8-13.1,87.4v5.2c.1,0-.7.9-.7.9-2.9,3-5.6,5.8-7.9,7.9-7.1,6.5-13,9.7-18.1,9.7s-9.9-2.6-12.3-7.4c-2-4-3-9.5-3.1-17.3.1-1.4.3-2.9.2-4.6v-.9c-.1,0,0-.3,0-.3.8-10.3,3.6-26.6,8.4-48.6,4.4-21.4,6.7-35.1,6.7-40.8s0-9.2-15.2-9.2-12.3,1.2-15.3,3.6c-3.1,2.5-5.6,7.2-7.6,14.2-4.2,14.4-7.8,30-10.5,46.6-2.7,16.6-4.1,30.3-4.1,40.8s.1,3.7.2,5.5l.2,2.1-.3,1.8-1.1,1c-1.4,1.2-2.8,2.4-4.1,3.5-8.4,6.6-18.2,9.9-29,9.9s-23.9-5.5-30.3-16.5c-2.4-4.2-4.4-9.8-6-16.8-2.9-21.4-3.6-43.2-2.2-64.9l.2-2.8h27.1c37.4,0,37.4-16.3,37.4-21.7s-1-6.6-1.6-7.2c-1.1-1.1-3.2-1.6-6.1-1.6h-53.2l.6-3.5c5.5-31.8,15.5-65.1,30.5-102,2.1-5.1,1.8-9.8-.7-13.6-3-4.5-9.2-7.4-15.9-7.4s-15.3,4.5-18.4,12.1c-16,39.3-26.4,75.8-31.8,111.8l-.4,2.5h-24.7c-5.6,0-13.1,1.8-13.1,17s1,8.4,2.9,10.5c1.3,1.4,4.5,3,12.3,3h17.1l-.2,3.2c-.7,10.7-1.1,21.3-1.1,31.6s.3,14,.9,21.1l.2,2.1c-3.2-.7-6.3.3-8.8,2.4-.9.6-1.8,1.4-2.7,2.4-10.2,12.4-22.5,22.5-36.4,30.2-14.1,7.7-26.9,11.6-38.1,11.6-17.8,0-30.1-6-36.6-18l-1.8-3.4,3.8-.9c27.4-6.7,47.1-15.9,58.5-27.3,11.2-11.2,16.8-24.7,16.8-40.2s-3.9-23.7-11.6-31.3c-7.8-7.7-18-11.5-31.1-11.5s-28.3,4-40,12c-11.8,8-21.1,19-27.8,32.6-6.7,13.7-10.1,28.7-10.1,44.6s.8,15.4,2.5,22.3l.5,2-1.7,1.2c-12.8,9-24.9,17.5-43.6,17.5-6.2,0-11.3-2.4-15.2-7-11.8-13.8-9.4-44.8-6.9-62.1l.2-1.4,1.2-.7c21.5-12.8,42.7-27.3,63-43.1,5.5-4.3,7.4-9.8,5.4-15.6-2.6-7.6-11.2-13.6-19.6-13.6s-8.2,1.4-11.8,4.2c-19.4,15.1-40.5,29.2-63.2,41.9-1.2.4-2.2,1-3.5,1.9l-2.9,1.6c-3.1,1.8-6.3,3.5-9.5,5.2l-12.8,6.8,1.3-6.3c12.7-59.1,19.9-119.4,21.4-179.3.1-4.9-1.3-9-4.3-12.1-3.2-3.3-8-5.1-13.2-5.1-8.7,0-18.2,5.4-18.5,17.4-1.7,67.6-11.1,135.8-27.8,202.6l-.4,1.6-1.6.5c-7.7,2.5-15.3,4-22.4,4.5h-1.2l-.9-.6c-3.2-2.6-4.8-7-4.8-13s1-8.7,2.9-18.4c2.1-11.7,3.2-19.1,3.2-22,0-13.8-6.4-20.2-20.2-20.2s-15.5,2.6-24.4,7.8c-9,5.3-18.4,14.2-27.9,26.7-3.4,4.5-6.5,9.3-9.4,14.2-2.4,3.4-4.7,7-6.9,10.6-2.3,3.8-4.5,7.6-6.8,11.4-1.2,1.9-5.9,10.9-8.5,11.2,0-1,.1-2,.2-3,.2-1.8.4-3.6.6-5.4.4-3.4.8-6.9,1.4-10.3.4-2.5.8-5,1.3-7.5,1.4-7.2,3.3-15.6,5.8-25.2,4.3-16.2,5.3-22.5,5.3-25s-.5-3.7-1.5-4.3c-.8-.5-3-1.3-8.4-1.3-8.2,0-14.5,1.5-18.9,4.3-4.3,2.9-7.4,7.3-9.3,13.6-8.7,27.4-13.1,56.8-13.1,87.4v5.1c.1,0-.7.9-.7.9-3,3.2-5.8,6-8.2,8.2-7.1,6.4-13.1,9.5-18.4,9.5s-6.9-1.5-9.3-4.3c-2.2-2.7-3.4-6.2-3.4-10.5,0-10.9,2.8-30.3,8.3-57.7,3.5-18.6,5.3-30.4,5.3-35.2s-1.6-9.5-14.5-9.5h-.7c-.3-.6-.7-1.2-1.2-1.8-3.5-4.3-8.9-6.8-14-8.7-3.7-1.4-7.1-1.7-10.5-1.6-1.1-.2-2.5-.3-4.4-.3-15.7,0-30.8,5-44.9,15-14.2,10-25.7,23.5-34.3,40-8.5,16.5-12.9,34.3-12.9,52.8s4.2,30.1,12.5,40.3ZM1600.2,554.2c-6.9,31.3-14.3,54.5-21.9,69-8.1,15.5-15.6,23-22.8,23s-8.8-2.9-10.3-5.4c-1.8-3.1-2.7-7-2.7-11.5,0-10.1,4.2-21.8,12.6-34.8,8.2-12.8,21.8-27.3,40.2-43.2l6.8-5.8-1.9,8.7h0ZM1573,420.2c5.2-12.3,12.2-22.3,20.8-29.9,8.8-7.7,18.6-11.8,29-12h3.7l-12.1,64.6h.1c-2.2,12.8-6,22.9-11.3,29.9-5.6,7.4-11.7,11.2-18.1,11.2s-11.1-2.2-14.6-6.4c-3.4-4.1-5.2-10.3-5.2-18.4,0-13.7,2.6-26.8,7.7-39ZM1527,463.6l.2,2.1-.41,1.44c.05-1.49.12-4.27.21-3.54ZM1055.3,397.6h0c6.6-11.2,15-16.8,24.9-16.8s9.3,1.7,12.4,5.1c3,3.3,4.5,7.6,4.5,12.9,0,9.7-4.4,18.3-13.2,25.5-.8.7-1.7,1.4-2.6,2-10.7,6.3-23.1,8.5-35.4,6.6.4-13.6,3.6-25.5,9.4-35.3ZM566,420.2c5.2-12.3,12.2-22.3,21-29.9,9-7.7,18.9-11.7,29.6-12h3.7l-14,69.3h.1c-2.2,10.6-5.9,19.3-10.9,25.9-5.3,6.9-11.2,10.5-17.4,10.5s-11.1-2.2-14.6-6.4c-3.5-4.1-5.2-10.1-5.2-18.4,0-13.7,2.6-26.8,7.7-39ZM144,667.8c-3.6-5.9-3.8-12.7-.6-19.1,57.8-115.1,104.3-250.3,146.3-425.4,2.3-9.5,12.5-13.7,19.5-13.7s16,3.6,17.8,13.6c10,54.8,22.5,119.4,40.3,182.8l1.7,6,3.6-5.1c41.5-58.1,79.5-120,116.2-179.8l7.2-11.8c3.7-6.2,9.9-9.6,15.6-9.6s11.5,2.8,15.4,7.5c4,4.7,5.6,10.9,4.4,17.2-3.3,18.4-7.2,37.1-11,55.2-7.9,38.1-16.1,77.5-19.9,117v1.6c-7.1,76-2.2,117.5,15.1,127,1.2.7,2.7,2,1.9,5.3-1.7,6.8-12.7,17-25.7,17s-23.2-10.3-29.7-29.6c-11.1-33.4-1-124.9,5.9-168.7.5-3.1,1-6.2,1.6-9.2.2-.7.3-1.4.4-2.1.2-1,.6-2,.5-3.1-.2-1.9-2.2-2.6-3.9-2.4-.5,0-1.1.2-1.5.5-.7.6-1.1,1.5-1.6,2.3-.6,1-1.1,2.1-1.7,3.1-1.3,2.1-2.6,4.1-4,6.2h.2c-2.2,3.4-4.5,6.8-6.7,10.2-4.3,6.5-8.6,13-12.9,19.5-4.1,6.2-8.3,12.4-12.5,18.5-4,5.9-8,11.7-12.1,17.5-4,5.6-7.9,11.2-11.9,16.7-3.9,5.3-7.8,10.6-11.7,15.9-3.8,5.1-7.6,10.2-11.5,15.2-4.5,5.8-9.6,9.3-18,9.3s-15-5.2-17.8-13.8c-.3-1.1-.7-2.3-1.1-3.5-2-6.5-4-13.1-6-19.6-2-6.7-4-13.5-5.9-20.3-1.9-7.1-3.8-14.1-5.7-21.2-2-7.3-3.8-14.7-5.6-22.1-1.9-7.7-3.7-15.4-5.5-23.1-.9-3.9-1.8-7.9-2.7-11.9-.4-2.1-.9-4.1-1.3-6.1-.3-1.6-.5-3.3-2-4.2-1.1-.6-2.5-.5-3.4.2-1.1.9-1.2,2.4-1.6,3.7-.5,1.5-.9,3.1-1.3,4.6-.9,3.1-1.7,6.2-2.6,9.3-2.2,7.7-4.4,15.4-6.6,23.1-2.2,7.6-4.4,15.1-6.7,22.7-2.3,7.4-4.6,14.9-6.9,22.3-2.3,7.3-4.6,14.6-7,21.9-2.3,7.2-4.7,14.4-7.1,21.5-2.3,7.1-4.7,14.1-7.2,21.1-2.4,6.9-4.8,13.8-7.3,20.7-2.5,6.8-5,13.5-7.5,20.3-2.5,6.7-5,13.4-7.6,20-2.6,6.6-5.2,13.1-7.8,19.6-2.6,6.4-5.2,12.8-7.9,19.2-2.7,6.3-5.4,12.6-8.1,18.9-2.7,6.2-5.4,12.3-8.2,18.5-2.8,6.1-5.6,12.2-8.4,18.2-2.8,6-5.6,11.9-8.5,17.9-2.8,5.8-5.7,11.7-8.6,17.5-4.1,8-7.6,9.7-14.6,9.7s-14.3-4.3-18.2-10.6Z"></path></svg>